<svg xmlns="http://www.w3.org/2000/svg" viewBox="0 0 400 140"><defs><style>.cls-1,.cls-13,.cls-3,.cls-4{fill:#fff}.cls-1{stroke:#2bc7f4}.cls-1,.cls-13,.cls-6{stroke-miterlimit:10}.cls-1,.cls-13,.cls-3,.cls-6,.cls-8{stroke-width:2px}.cls-2{fill:#80cee9}.cls-2,.cls-5{opacity:.7}.cls-13,.cls-3,.cls-8{stroke:#556a8a}.cls-3,.cls-8{stroke-linecap:round;stroke-linejoin:round}.cls-12,.cls-6,.cls-8{fill:none}.cls-6{stroke:#868787}.cls-7{fill:#2bc7f4}.cls-9{fill:#e5e5e5}.cls-10{fill:#556a8a}.cls-11{fill:#55d2f6}</style></defs><title>biztalk-developer-documentation-1</title><g id="ICONS"><g><path d="M138.32,107.39A25.36,25.36,0,0,1,138.12,58c1.86-11.89,12-21,23.91-21a24,24,0,0,1,20.38,11.45,24.2,24.2,0,0,1,10.75-2.52c10.36,0,33.33-3.63,30.34,8.46,1.56-.33-4,7.57-2.39,7.57a22.89,22.89,0,0,1,9.69,43.64l-.35.15a21.08,21.08,0,0,1-6.77,1.85l-.57.06c-3,.26-7,.31-13.37.31H143.13A20.74,20.74,0,0,1,138.32,107.39Z" class="cls-1"/><path d="M107.83,73.85a28.34,28.34,0,0,1,56-.89,19.29,19.29,0,0,1,31,9.8,16.86,16.86,0,1,1,4,33.23H103.89A21.56,21.56,0,0,1,87,94.92,21.08,21.08,0,0,1,107.83,73.85Z" class="cls-2"/><g><rect width="124" height="97" x="178" y="24" class="cls-3"/><path d="M240,119a13.75,13.75,0,0,0-9-4H189V18h43c7,0,8,10,8,10s1-10,8-10h43v97H249a13.75,13.75,0,0,0-9,4" class="cls-4"/><g class="cls-5"><line x1="248" x2="270" y1="39" y2="39" class="cls-6"/><line x1="248" x2="270" y1="51" y2="51" class="cls-6"/><line x1="248" x2="270" y1="63" y2="63" class="cls-6"/><line x1="248" x2="270" y1="75" y2="75" class="cls-6"/><line x1="248" x2="270" y1="87" y2="87" class="cls-6"/></g><g class="cls-5"><line x1="210" x2="232" y1="39" y2="39" class="cls-6"/><line x1="210" x2="232" y1="51" y2="51" class="cls-6"/><line x1="210" x2="232" y1="63" y2="63" class="cls-6"/><line x1="210" x2="232" y1="75" y2="75" class="cls-6"/><line x1="210" x2="232" y1="87" y2="87" class="cls-6"/></g><rect width="2" height="93.32" x="239" y="25.5" class="cls-7"/><path d="M240,120a13.75,13.75,0,0,0-9-4H189V19h43c7,0,8,10,8,10s1-10,8-10h43v97H249a13.75,13.75,0,0,0-9,4" class="cls-8"/><rect width="15" height="95" x="190" y="20" class="cls-9"/><rect width="15" height="95" x="275" y="20" class="cls-9"/></g><path d="M189,96.49a30.51,30.51,0,1,1,21.56-8.93A30.29,30.29,0,0,1,189,96.49Z" class="cls-4"/><path d="M167.35,43.93a30.25,30.25,0,0,1,42.78,42.78Z" class="cls-9"/><path d="M189,37a29,29,0,1,1-20.5,8.49A28.8,28.8,0,0,1,189,37h0m0-2a31,31,0,1,0,21.91,9.08A30.89,30.89,0,0,0,189,35Z" class="cls-10"/><polygon points="170.62 47.62 183.34 71.66 207.38 84.39 192 62 170.62 47.62" class="cls-11"/><polygon points="170.62 47.62 207.38 84.39 194.66 60.34 170.62 47.62" class="cls-7"/><rect width="64" height="64" x="157" y="34" class="cls-12"/><line x1="189" x2="189" y1="40" y2="47" class="cls-13"/><line x1="189" x2="189" y1="85" y2="92" class="cls-13"/><line x1="163" x2="170" y1="65" y2="65" class="cls-13"/><line x1="208" x2="215" y1="65" y2="65" class="cls-13"/><circle cx="189" cy="66" r="3" class="cls-4"/></g></g></svg>